<svg width="1520" height="209" fill="none" xmlns="http://www.w3.org/2000/svg"><g opacity=".3" stroke="#DFDFF1" clip-path="url(#clip0_84_1070)"><path d="M1520 129l-66.67-90.885c-66.66-90.885-200-272.655-333.33-318.097-133.333-45.443-266.667 45.442-400 147.688C586.667-30.049 453.333 83.558 320 106.279 186.667 129 53.333 60.836-13.333 26.755L-80-7.327"/><path d="M1520 142l-66.67-90.885c-66.66-90.885-200-272.655-333.33-318.097-133.333-45.443-266.667 45.442-400 147.688C586.667-17.049 453.333 96.557 320 119.279 186.667 142 53.333 73.836-13.333 39.755L-80 5.673"/><path d="M1520 157l-66.67-90.885c-66.66-90.885-200-272.655-333.33-318.097-133.333-45.443-266.667 45.442-400 147.688C586.667-2.049 453.333 111.558 320 134.279 186.667 157 53.333 88.836-13.333 54.755L-80 20.673"/><path d="M1520 168l-66.67-90.885c-66.66-90.885-200-272.655-333.33-318.097-133.333-45.443-266.667 45.442-400 147.688C586.667 8.95 453.333 122.558 320 145.279 186.667 168 53.333 99.836-13.333 65.754L-80 31.673"/><path d="M1520 175l-66.67-90.885c-66.66-90.885-200-272.655-333.33-318.097-133.333-45.443-266.667 45.442-400 147.688C586.667 15.95 453.333 129.558 320 152.279 186.667 175 53.333 106.836-13.333 72.754L-80 38.673"/><path d="M1520 188l-66.67-90.885c-66.66-90.885-200-272.655-333.33-318.097-133.333-45.443-266.667 45.442-400 147.688C586.667 28.95 453.333 142.558 320 165.279 186.667 188 53.333 119.836-13.333 85.754L-80 51.673"/><path d="M1520 203l-66.67-90.885c-66.66-90.885-200-272.655-333.33-318.097-133.333-45.443-266.667 45.442-400 147.688C586.667 43.95 453.333 157.558 320 180.279 186.667 203 53.333 134.836-13.333 100.754L-80 66.673"/><path d="M1520 214l-66.67-90.885c-66.66-90.885-200-272.655-333.33-318.097-133.333-45.443-266.667 45.442-400 147.688C586.667 54.95 453.333 168.558 320 191.279 186.667 214 53.333 145.836-13.333 111.754L-80 77.673"/><path d="M1520 226l-66.67-90.885c-66.66-90.885-200-272.655-333.33-318.097-133.333-45.443-266.667 45.442-400 147.688C586.667 66.95 453.333 180.558 320 203.279 186.667 226 53.333 157.836-13.333 123.754L-80 89.673"/><path d="M1520 239l-66.67-90.885c-66.66-90.885-200-272.655-333.33-318.097-133.333-45.443-266.667 45.442-400 147.688C586.667 79.95 453.333 193.558 320 216.279 186.667 239 53.333 170.836-13.333 136.754L-80 102.673"/><path d="M1520 254l-66.67-90.885c-66.66-90.885-200-272.655-333.33-318.097C986.667-200.425 853.333-109.54 720-7.294 586.667 94.95 453.333 208.558 320 231.279 186.667 254 53.333 185.836-13.333 151.754L-80 117.673"/><path d="M1520 265l-66.67-90.885c-66.66-90.885-200-272.655-333.33-318.097C986.667-189.425 853.333-98.54 720 3.706 586.667 105.95 453.333 219.558 320 242.279 186.667 265 53.333 196.836-13.333 162.754L-80 128.673"/><path d="M1520 284l-66.67-90.885c-66.66-90.885-200-272.655-333.33-318.097C986.667-170.425 853.333-79.54 720 22.706 586.667 124.95 453.333 238.558 320 261.279 186.667 284 53.333 215.836-13.333 181.754L-80 147.673"/><path d="M1520 297l-66.67-90.885c-66.66-90.885-200-272.655-333.33-318.097C986.667-157.425 853.333-66.54 720 35.706 586.667 137.95 453.333 251.558 320 274.279 186.667 297 53.333 228.836-13.333 194.754L-80 160.673"/><path d="M1520 312l-66.67-90.885c-66.66-90.885-200-272.655-333.33-318.097C986.667-142.425 853.333-51.54 720 50.706 586.667 152.95 453.333 266.558 320 289.279 186.667 312 53.333 243.836-13.333 209.754L-80 175.673"/><path d="M1520 323l-66.67-90.885c-66.66-90.885-200-272.655-333.33-318.097C986.667-131.425 853.333-40.54 720 61.706 586.667 163.95 453.333 277.558 320 300.279 186.667 323 53.333 254.836-13.333 220.754L-80 186.673"/><path d="M1520 330l-66.67-90.885c-66.66-90.885-200-272.655-333.33-318.097C986.667-124.425 853.333-33.54 720 68.706 586.667 170.95 453.333 284.558 320 307.279 186.667 330 53.333 261.836-13.333 227.754L-80 193.673"/><path d="M1520 343l-66.67-90.885c-66.66-90.885-200-272.655-333.33-318.097C986.667-111.425 853.333-20.54 720 81.706 586.667 183.95 453.333 297.558 320 320.279 186.667 343 53.333 274.836-13.333 240.754L-80 206.673"/><path d="M1520 358l-66.67-90.885C1386.67 176.23 1253.33-5.54 1120-50.982 986.667-96.425 853.333-5.54 720 96.706 586.667 198.95 453.333 312.558 320 335.279 186.667 358 53.333 289.836-13.333 255.754L-80 221.673"/><path d="M1520 369l-66.67-90.885C1386.67 187.23 1253.33 5.46 1120-39.982 986.667-85.425 853.333 5.46 720 107.706 586.667 209.951 453.333 323.558 320 346.279 186.667 369 53.333 300.836-13.333 266.754L-80 232.673"/><path d="M1520 381l-66.67-90.885c-66.66-90.885-200-272.655-333.33-318.097C986.667-73.425 853.333 17.46 720 119.706 586.667 221.951 453.333 335.558 320 358.279 186.667 381 53.333 312.836-13.333 278.754L-80 244.673"/><path d="M1520 394l-66.67-90.885c-66.66-90.885-200-272.655-333.33-318.097C986.667-60.425 853.333 30.46 720 132.706 586.667 234.951 453.333 348.558 320 371.279 186.667 394 53.333 325.836-13.333 291.754L-80 257.673"/><path d="M1520 409l-66.67-90.885C1386.67 227.23 1253.33 45.46 1120 .018 986.667-45.425 853.333 45.46 720 147.706 586.667 249.951 453.333 363.558 320 386.279 186.667 409 53.333 340.836-13.333 306.754L-80 272.673"/><path d="M1520 420l-66.67-90.885c-66.66-90.885-200-272.655-333.33-318.097C986.667-34.425 853.333 56.46 720 158.706 586.667 260.951 453.333 374.558 320 397.279 186.667 420 53.333 351.836-13.333 317.754L-80 283.673"/><path d="M1520 428l-66.67-90.885c-66.66-90.885-200-272.655-333.33-318.097C986.667-26.425 853.333 64.46 720 166.706 586.667 268.951 453.333 382.558 320 405.279 186.667 428 53.333 359.836-13.333 325.754L-80 291.673"/><path d="M1520 441l-66.67-90.885c-66.66-90.885-200-272.655-333.33-318.097C986.667-13.425 853.333 77.46 720 179.706 586.667 281.951 453.333 395.558 320 418.279 186.667 441 53.333 372.836-13.333 338.754L-80 304.673"/><path d="M1520 456l-66.67-90.885c-66.66-90.885-200-272.655-333.33-318.097C986.667 1.575 853.333 92.46 720 194.706 586.667 296.951 453.333 410.558 320 433.279 186.667 456 53.333 387.836-13.333 353.754L-80 319.673"/><path d="M1520 467l-66.67-90.885c-66.66-90.885-200-272.655-333.33-318.097-133.333-45.443-266.667 45.442-400 147.688-133.333 102.245-266.667 215.852-400 238.573C186.667 467 53.333 398.836-13.333 364.754L-80 330.673"/><path d="M1520 474l-66.67-90.885c-66.66-90.885-200-272.655-333.33-318.097-133.333-45.443-266.667 45.442-400 147.688-133.333 102.245-266.667 215.852-400 238.573C186.667 474 53.333 405.836-13.333 371.754L-80 337.673"/><path d="M1520 487l-66.67-90.885c-66.66-90.885-200-272.655-333.33-318.097-133.333-45.443-266.667 45.442-400 147.688-133.333 102.245-266.667 215.852-400 238.573C186.667 487 53.333 418.836-13.333 384.754L-80 350.673"/><path d="M1520 502l-66.67-90.885c-66.66-90.885-200-272.655-333.33-318.097-133.333-45.443-266.667 45.442-400 147.688-133.333 102.245-266.667 215.852-400 238.573C186.667 502 53.333 433.836-13.333 399.754L-80 365.673"/><path d="M1520 513l-66.67-90.885c-66.66-90.885-200-272.655-333.33-318.097-133.333-45.443-266.667 45.442-400 147.688-133.333 102.245-266.667 215.852-400 238.573C186.667 513 53.333 444.836-13.333 410.754L-80 376.673"/><path d="M1520 525l-66.67-90.885c-66.66-90.885-200-272.655-333.33-318.097-133.333-45.443-266.667 45.442-400 147.688-133.333 102.245-266.667 215.852-400 238.573C186.667 525 53.333 456.836-13.333 422.754L-80 388.673"/><path d="M1520 538l-66.67-90.885c-66.66-90.885-200-272.655-333.33-318.097-133.333-45.443-266.667 45.442-400 147.688-133.333 102.245-266.667 215.852-400 238.573C186.667 538 53.333 469.836-13.333 435.754L-80 401.673"/><path d="M1520 553l-66.67-90.885c-66.66-90.885-200-272.655-333.33-318.097-133.333-45.443-266.667 45.442-400 147.688-133.333 102.245-266.667 215.852-400 238.573C186.667 553 53.333 484.836-13.333 450.754L-80 416.673"/><path d="M1520 564l-66.67-90.885c-66.66-90.885-200-272.655-333.33-318.097-133.333-45.443-266.667 45.442-400 147.688-133.333 102.245-266.667 215.852-400 238.573C186.667 564 53.333 495.836-13.333 461.754L-80 427.673"/><path d="M1520 573l-66.67-90.885c-66.66-90.885-200-272.655-333.33-318.097-133.333-45.443-266.667 45.442-400 147.688-133.333 102.245-266.667 215.852-400 238.573C186.667 573 53.333 504.836-13.333 470.754L-80 436.673"/><path d="M1520 586l-66.67-90.885c-66.66-90.885-200-272.655-333.33-318.097-133.333-45.443-266.667 45.442-400 147.688-133.333 102.245-266.667 215.852-400 238.573C186.667 586 53.333 517.836-13.333 483.754L-80 449.673"/><path d="M1520 601l-66.67-90.885c-66.66-90.885-200-272.655-333.33-318.097-133.333-45.443-266.667 45.442-400 147.688-133.333 102.245-266.667 215.852-400 238.573C186.667 601 53.333 532.836-13.333 498.754L-80 464.673"/><path d="M1520 612l-66.67-90.885c-66.66-90.885-200-272.655-333.33-318.097-133.333-45.443-266.667 45.442-400 147.688-133.333 102.245-266.667 215.852-400 238.573C186.667 612 53.333 543.836-13.333 509.754L-80 475.673"/><path d="M1520 619l-66.67-90.885c-66.66-90.885-200-272.655-333.33-318.097-133.333-45.443-266.667 45.442-400 147.688-133.333 102.245-266.667 215.852-400 238.573C186.667 619 53.333 550.836-13.333 516.754L-80 482.673"/><path d="M1520 632l-66.67-90.885c-66.66-90.885-200-272.655-333.33-318.097-133.333-45.443-266.667 45.442-400 147.688-133.333 102.245-266.667 215.852-400 238.573C186.667 632 53.333 563.836-13.333 529.754L-80 495.673"/></g><defs><clipPath id="clip0_84_1070"><path fill="#fff" transform="matrix(-1 0 0 1 1520 0)" d="M0 0h1520v209H0z"/></clipPath></defs></svg>