<svg width="1600" height="483" viewBox="0 0 1600 483" fill="none" xmlns="http://www.w3.org/2000/svg">
<path opacity="0.05" d="M782.512 835.733C776.275 836.281 772.912 824.723 782.512 818.69C790.989 812.259 810.81 816.932 816.466 835.733C823.199 853.49 810.262 881.272 782.512 886.857C755.872 893.809 719.81 872.8 714.603 835.733C707.362 799.888 736.625 755.479 782.512 750.516C827.302 743.015 879.657 780.545 884.381 835.733C892.204 889.784 846.476 950.55 782.512 955.03C719.651 963.02 650.805 909.127 646.695 835.733C638.416 763.369 700.378 686.367 782.512 682.342C863.648 673.804 948.503 744.086 952.289 835.733C960.918 926.138 882.921 1019.79 782.512 1023.2C683.206 1032.23 582.084 945.587 578.787 835.733C569.57 727.075 663.999 617.089 782.512 614.169C899.901 604.692 1017.48 707.666 1020.2 835.733C1029.9 962.597 919.174 1088.94 782.512 1091.38C646.986 1101.47 513.112 981.94 510.879 835.733C500.69 690.722 627.713 547.852 782.512 546.001C936.181 535.448 1086.36 671.273 1088.11 835.733C1098.78 999.083 955.421 1158.05 782.512 1159.54C610.739 1170.46 444.133 1018.53 442.97 835.733C431.718 654.163 591.499 478.832 782.512 477.828C972.401 466.435 1155.33 634.721 1156.01 835.733C1167.75 1035.48 991.674 1227.27 782.512 1227.72C574.486 1239.76 375.253 1054.79 375.062 835.733C362.839 617.777 555.213 409.588 782.512 409.654C1008.65 397.19 1224.31 598.328 1223.92 835.733C1236.73 1071.9 1027.89 1296.41 782.512 1295.89C538.107 1308.88 306.407 1091.25 307.154 835.733C293.992 581.384 518.834 340.377 782.512 341.48C1045.09 327.946 1293.03 561.968 1291.83 835.733C1305.44 1108.29 1064.33 1365.65 782.512 1364.06C501.86 1378.12 237.435 1127.61 239.245 835.733C225.046 544.865 482.587 271.265 782.512 273.313C1081.31 258.801 1362.04 525.548 1359.74 835.733C1374.42 1144.74 1100.59 1434.87 782.512 1432.24C465.573 1447.33 168.555 1164.06 171.337 835.733C156.167 508.372 446.3 202.153 782.512 205.14C1117.53 189.689 1431.01 489.029 1427.65 835.733C1443.43 1181.33 1136.8 1503.85 782.512 1500.41C429.326 1516.35 99.6096 1200.65 103.429 835.733C87.1617 471.986 410.086 132.908 782.512 136.966C1153.85 120.478 1499.86 452.636 1495.56 835.733C1512.28 1217.69 1173.09 1573.09 782.512 1568.58C393.106 1585.59 30.6375 1237 35.5202 835.733C18.1831 435.559 373.866 63.7632 782.512 68.7922C1190.19 51.2994 1568.71 416.243 1563.47 835.733C1581.12 1253.95 1209.47 1642.4 782.512 1636.75C356.661 1654.8 -38.1166 1273.39 -32.3882 835.733C-50.5314 399.199 337.421 -5.48103 782.512 0.625257C1226.44 -17.9447 1637.68 379.856 1631.37 835.733C1650.1 1290.47 1245.72 1711.51 782.512 1704.92" stroke="#240532" stroke-width="3" stroke-linecap="round"/>
</svg>
